<svg xmlns="http://www.w3.org/2000/svg" width="24" height="24" viewBox="0 -960 960 960"><path d="M200-120q-33 0-56.5-23.5T120-200v-560q0-33 23.5-56.5T200-840h480l160 160v212q-19-8-39.5-10.5t-40.5.5v-169L647-760H200v560h240v80zm0-640v560zM520-40v-123l221-220q9-9 20-13t22-4q12 0 23 4.5t20 13.5l37 37q8 9 12.5 20t4.5 22-4 22.5-13 20.5L643-40zm300-263-37-37zM580-100h38l121-122-18-19-19-18-122 121zm141-141-19-18 37 37zM240-560h360v-160H240zm240 320h4l116-115v-5q0-50-35-85t-85-35-85 35-35 85 35 85 85 35"/></svg>